<?xml version="1.0" encoding="UTF-8"?>
<svg width="681px" height="139px" viewBox="0 0 681 139" version="1.1" xmlns="http://www.w3.org/2000/svg" xmlns:xlink="http://www.w3.org/1999/xlink">
    <!-- Generator: Sketch 54.1 (76490) - https://sketchapp.com -->
    <title>wc-logo</title>
    <desc>Created with Sketch.</desc>
    <g id="Apple-App-Store-Listing" stroke="none" stroke-width="1" fill="none" fill-rule="evenodd">
        <g id="Screenshot-1-1242x2208" transform="translate(-279.000000, -191.000000)">
            <g id="wc-logo" transform="translate(279.000000, 191.000000)">
                <g id="logo">
                    <path d="M22.31838,0.189973721 L209.811606,0.189973721 C221.677074,0.189973721 231.282452,9.87863349 231.282452,21.8469779 L231.282452,94.0369919 C231.282452,106.005336 221.677074,115.693996 209.811606,115.693996 L142.573955,115.693996 L151.802652,138.490843 L111.215218,115.693996 L22.4125503,115.693996 C10.5470825,115.693996 0.941703796,106.005336 0.941703796,94.0369919 L0.941703796,21.8469779 C0.847533417,9.97362035 10.4529121,0.189973721 22.31838,0.189973721 L22.31838,0.189973721 Z" id="Shape" fill="#FFFFFF"></path>
                    <g id="wc-logo" transform="translate(0.945622, 0.000000)">
                        <g id="Group-3" fill="#96588A">
                            <path d="M21.4560675,0.471557543 L208.931588,0.471557543 C220.783933,0.471557543 230.385772,10.0922745 230.385772,21.9604348 L230.385772,93.5617322 C230.385772,105.427063 220.783933,115.044951 208.931588,115.044951 L141.690461,115.044951 L150.893048,137.694803 L110.278499,115.044951 L21.4560675,115.044951 C9.60748954,115.044951 0,105.427063 0,93.5617322 L0,21.9604348 C0,10.0922745 9.60748954,0.471557543 21.4560675,0.471557543" id="Fill-1"></path>
                        </g>
                        <path d="M13.8873906,20.1747453 C15.2330818,18.4379704 17.1842403,17.4793004 19.7380589,17.2987354 C24.4882175,16.9673893 27.2142246,19.1946681 27.9179519,23.9796413 C30.8545157,43.3950352 33.9941497,59.8711283 37.3377897,73.4125744 L57.8441385,34.6115706 C59.7063954,31.107306 62.0524647,29.2513954 64.8804748,29.0531462 C68.9886695,28.7674067 71.5602684,31.3707076 72.5896566,36.8611874 C74.9329185,49.2001077 77.885391,59.8041145 81.4489458,68.6797231 C83.9045046,45.0582811 88.0173784,27.9799943 93.7819523,17.4485857 C95.1613325,14.88903 97.2201089,13.5124544 99.9592173,13.3216511 C102.147135,13.1662163 104.117946,13.7823711 105.867906,15.1636005 C107.617866,16.5457606 108.570518,18.3281422 108.723054,20.5060914 C108.838158,22.1414149 108.530278,23.623165 107.798476,24.9513417 C104.150699,31.6871618 101.135527,42.8924315 98.7595122,58.5690125 C96.4405813,73.6955217 95.5777668,85.5271846 96.1832342,94.0602781 C96.3507438,96.4225154 95.9913937,98.455268 95.100505,100.159467 C93.9663064,102.243411 92.3033765,103.365892 90.1117155,103.518535 C87.6477344,103.692584 85.180946,102.54125 82.7104143,100.068254 C74.0102123,91.1898526 67.110504,77.9871986 62.0140966,60.4602915 C55.9781385,72.3803754 51.4740972,81.3183441 48.5029085,87.2751284 C43.0097187,97.787922 38.3007356,103.182535 34.3750233,103.456175 C31.8202689,103.635809 29.6501315,101.50812 27.8674182,97.0693849 C23.0639186,84.9073067 17.9057479,61.3612552 12.4050716,26.4377456 C12.048529,23.9973255 12.5435711,21.9105895 13.8873906,20.1747453" id="Fill-4" fill="#FFFFFF"></path>
                        <path d="M201.417396,61.0866113 C200.153958,67.2216378 197.811255,71.8451361 194.392972,74.9533624 C191.69205,77.4251557 189.213058,78.4331532 186.963364,77.9736112 C184.709986,77.5178128 182.909678,75.5027538 181.559677,71.9340495 C180.478572,69.0064579 179.93986,66.1668438 179.93986,63.4217587 C179.93986,61.0435585 180.161791,58.7533357 180.61394,56.557642 C181.423388,52.7128382 183.045046,49.0065521 185.477074,45.436912 C188.536216,40.8602102 191.733489,38.9406161 195.067052,39.672514 C197.316746,40.1301842 199.120738,42.1433714 200.471659,45.7130116 C201.552765,48.6424751 202.090555,51.4774095 202.090555,54.2234306 C202.090555,56.6044386 201.865862,58.8909176 201.417396,61.0866113 L201.417396,61.0866113 Z M213.032376,35.140737 C209.698813,29.2836819 204.793319,25.6672452 198.308527,24.2942347 C196.596623,23.9320294 194.931683,23.7467151 193.313708,23.7467151 C184.485293,23.7467151 177.280377,28.4142021 171.697121,37.7482403 C166.924232,45.7130116 164.538249,54.4995301 164.538249,64.1087319 C164.538249,71.3397335 166.02546,77.5178128 168.998961,82.6410982 C172.32884,88.5000251 177.237096,92.11459 183.72373,93.4876005 C185.430109,93.8516776 187.099653,94.0369919 188.717628,94.0369919 C197.633527,94.0369919 204.835679,89.3704408 210.328691,80.0335949 C215.10342,71.9808461 217.493088,63.1494028 217.493088,53.5373933 C217.493088,46.3082636 216.004956,40.1760448 213.032376,35.140737 L213.032376,35.140737 Z" id="Fill-5" fill="#FFFFFF"></path>
                        <path d="M142.787147,61.0866113 C141.524498,67.2216378 139.186156,71.8451361 135.763832,74.9533624 C133.060786,77.4251557 130.582457,78.4331532 128.332528,77.9736112 C126.082598,77.5178128 124.282103,75.5027538 122.93104,71.9340495 C121.849822,69.0064579 121.309212,66.1668438 121.309212,63.4217587 C121.309212,61.0435585 121.533008,58.7533357 121.986125,56.557642 C122.795657,52.7128382 124.417485,49.0065521 126.845161,45.436912 C129.909228,40.8602102 133.105914,38.9406161 136.440745,39.672514 C138.690674,40.1301842 140.49117,42.1433714 141.842233,45.7130116 C142.92253,48.6424751 143.464981,51.4774095 143.464981,54.2234306 C143.464981,56.6044386 143.237502,58.8909176 142.787147,61.0866113 L142.787147,61.0866113 Z M154.407023,35.140737 C151.073112,29.2836819 146.163423,25.6672452 139.682559,24.2942347 C137.970476,23.9320294 136.304442,23.7467151 134.682614,23.7467151 C125.855119,23.7467151 118.652215,28.4142021 113.068375,37.7482403 C108.294989,45.7130116 105.909677,54.4995301 105.909677,64.1087319 C105.909677,71.3397335 107.395202,77.5178128 110.365329,82.6410982 C113.696477,88.5000251 118.606166,92.11459 125.091635,93.4876005 C126.800034,93.8516776 128.46791,94.0369919 130.089738,94.0369919 C139.004725,94.0369919 146.210392,89.3704408 151.704897,80.0335949 C156.475521,71.9808461 158.864516,63.1494028 158.864516,53.5373933 C158.864516,46.3082636 157.378071,40.1760448 154.407023,35.140737 L154.407023,35.140737 Z" id="Fill-6" fill="#FFFFFF"></path>
                    </g>
                    <path d="M255.107558,33.9103092 C248.798143,40.179442 245.69052,48.1583383 245.69052,57.846998 C245.69052,68.2005658 248.798143,76.6543964 255.013388,83.0185161 C261.228633,89.3826357 269.327286,92.612189 279.403516,92.612189 C282.322798,92.612189 285.618761,92.1372547 289.197236,91.0923992 L289.197236,75.7045278 C285.901273,76.6543964 283.076161,77.1293307 280.627731,77.1293307 C275.636701,77.1293307 271.681545,75.4195672 268.668093,72.0950271 C265.654641,68.6755001 264.147915,64.1161308 264.147915,58.3219323 C264.147915,52.9076813 265.654641,48.4432989 268.573923,45.0237719 C271.587375,41.509258 275.26002,39.7994945 279.780198,39.7994945 C282.69948,39.7994945 285.807102,40.2744289 289.197236,41.2242975 L289.197236,25.8364261 C286.089613,24.9815443 282.605309,24.6015969 278.932664,24.6015969 C269.327286,24.50661 261.416974,27.6411764 255.107558,33.9103092 L255.107558,33.9103092 Z M320.461802,24.50661 C311.798127,24.50661 305.01786,27.4512027 300.121,33.2454012 C295.22414,39.0395997 292.869881,47.2084697 292.869881,57.6570243 C292.869881,68.9604607 295.31831,77.604265 300.121,83.5884372 C304.923689,89.5726094 311.986468,92.612189 321.215165,92.612189 C330.161351,92.612189 337.035789,89.5726094 341.838478,83.5884372 C346.641167,77.604265 349.089597,69.1504344 349.089597,58.3219323 C349.089597,47.4934302 346.641167,39.1345865 341.744308,33.2454012 C336.753277,27.4512027 329.690499,24.50661 320.461802,24.50661 L320.461802,24.50661 Z M327.901262,73.8997775 C326.206195,76.5594096 323.663595,77.8892256 320.461802,77.8892256 C317.44835,77.8892256 315.188261,76.5594096 313.587364,73.8997775 C311.986468,71.2401454 311.233105,65.9208812 311.233105,57.846998 C311.233105,45.4037193 314.340727,39.2295734 320.650143,39.2295734 C327.242069,39.2295734 330.632203,45.4987062 330.632203,58.1319586 C330.538032,65.9208812 329.596329,71.2401454 327.901262,73.8997775 L327.901262,73.8997775 Z M395.609765,26.3113604 L392.219631,40.84435 C391.372098,44.5488376 390.524564,48.348312 389.771201,52.2427733 L387.887794,62.3113805 C386.098556,52.2427733 383.650127,40.2744289 380.542504,26.3113604 L358.694976,26.3113604 L350.502153,90.9974124 L366.887799,90.9974124 L371.313807,46.4485748 L382.520082,90.9974124 L394.197209,90.9974124 L404.932632,46.5435616 L409.546981,90.9974124 L426.68599,90.9974124 L418.022315,26.3113604 L395.609765,26.3113604 L395.609765,26.3113604 Z M474.053691,26.3113604 L470.663557,40.84435 C469.816024,44.5488376 468.96849,48.348312 468.215127,52.2427733 L466.33172,62.3113805 C464.542483,52.2427733 462.094053,40.2744289 458.98643,26.3113604 L437.138902,26.3113604 L428.946079,90.9974124 L445.331725,90.9974124 L449.757733,46.4485748 L460.964008,90.9974124 L472.641135,90.9974124 L483.282388,46.5435616 L487.896737,90.9974124 L505.035746,90.9974124 L496.372071,26.3113604 L474.053691,26.3113604 L474.053691,26.3113604 Z M527.354126,65.4459469 L542.703898,65.4459469 L542.703898,52.0527996 L527.354126,52.0527996 L527.354126,40.179442 L545.058157,40.179442 L545.058157,26.4063472 L510.026776,26.4063472 L510.026776,91.0923992 L545.152328,91.0923992 L545.152328,77.3193044 L527.354126,77.3193044 L527.354126,65.4459469 L527.354126,65.4459469 Z M593.932584,55.1873659 C595.721821,52.2427733 596.663525,49.2031937 596.663525,46.0686273 C596.663525,39.9894683 594.309266,35.1451384 589.600747,31.6306245 C584.892228,28.1161107 578.394472,26.3113604 570.295819,26.3113604 L550.143358,26.3113604 L550.143358,90.9974124 L567.470708,90.9974124 L567.470708,61.5514856 L567.753219,61.5514856 L581.784605,90.9974124 L600.053659,90.9974124 L586.210613,61.8364462 C589.506576,60.3166564 592.143347,58.1319586 593.932584,55.1873659 L593.932584,55.1873659 Z M567.376537,54.1425105 L567.376537,38.7546391 C571.520034,38.8496259 574.439316,39.514534 576.228553,40.84435 C578.01779,42.1741661 578.865323,44.263877 578.865323,47.3034565 C578.865323,51.767839 575.004338,54.0475236 567.376537,54.1425105 L567.376537,54.1425105 Z M606.833926,33.9103092 C600.524511,40.179442 597.416888,48.1583383 597.416888,57.846998 C597.416888,68.2005658 600.524511,76.6543964 606.739756,83.0185161 C612.955001,89.3826357 621.053654,92.612189 631.129884,92.612189 C634.049166,92.612189 637.345129,92.1372547 640.923604,91.0923992 L640.923604,75.7045278 C637.62764,76.6543964 634.802529,77.1293307 632.354099,77.1293307 C627.363069,77.1293307 623.407913,75.4195672 620.394461,72.0950271 C617.381009,68.6755001 615.874283,64.1161308 615.874283,58.3219323 C615.874283,52.9076813 617.381009,48.4432989 620.300291,45.0237719 C623.313743,41.509258 626.986387,39.7994945 631.506566,39.7994945 C634.425847,39.7994945 637.53347,40.2744289 640.923604,41.2242975 L640.923604,25.8364261 C637.815981,24.9815443 634.331677,24.6015969 630.659032,24.6015969 C621.147824,24.50661 613.143342,27.6411764 606.833926,33.9103092 L606.833926,33.9103092 Z M663.053643,77.1293307 L663.053643,65.35096 L678.403415,65.35096 L678.403415,51.9578127 L663.053643,51.9578127 L663.053643,40.0844551 L680.851845,40.0844551 L680.851845,26.3113604 L645.820463,26.3113604 L645.820463,90.9974124 L680.946015,90.9974124 L680.946015,77.2243176 L663.053643,77.2243176 L663.053643,77.1293307 Z" id="Shape" fill="#000000"></path>
                </g>
            </g>
        </g>
    </g>
</svg>